<svg width="118" height="118" viewBox="0 0 118 118" fill="none" xmlns="http://www.w3.org/2000/svg">
<path d="M54.2869 117.977C53.1345 117.47 51.8641 117.528 50.6484 117.355C26.622 113.898 7.06672 95.7915 1.67375 71.9495C-5.35555 40.9371 14.096 9.50688 44.9904 1.97631C49.6023 0.831662 54.3374 0.257917 59.0893 0.267966C60.1443 0.256387 61.1686 0.623151 61.9765 1.30178C62.7843 1.98041 63.3224 2.926 63.4931 3.96719C63.6637 5.00838 63.4558 6.07627 62.9069 6.97732C62.358 7.87838 61.5044 8.55297 60.5009 8.87886C59.7627 9.08707 58.9976 9.18417 58.2308 9.16694C47.6552 9.35132 38.0648 12.5375 29.5893 18.8524C18.9301 26.8064 12.163 37.3302 9.92742 50.5073C7.43547 65.1824 10.6591 78.6245 20.0709 90.1709C31.8824 104.653 47.3498 110.965 65.9371 108.559C86.1204 105.947 102.487 91.1591 107.54 71.5606C108.476 68.003 108.984 64.3462 109.052 60.6681C109.053 60.0172 109.091 59.367 109.167 58.7206C109.455 56.5196 110.959 54.9582 112.973 54.7479C115.211 54.5174 116.972 55.6525 117.758 57.8275C117.82 57.9592 117.894 58.0854 117.977 58.2049V61.1953C117.781 61.3883 117.888 61.6389 117.859 61.8636V62.2842C117.859 62.4628 117.819 62.6559 117.977 62.8028V63.9551C117.709 65.5713 117.755 67.2163 117.476 68.8324C115.589 79.7307 111.1 89.4075 103.826 97.7534C94.4653 108.493 82.7594 115.078 68.7085 117.507C66.98 117.795 65.2169 117.749 63.4855 117.989H62.8027C62.6558 117.83 62.4628 117.882 62.2813 117.87H61.852C61.6273 117.899 61.3796 117.793 61.1866 117.989H56.8163C56.5628 117.77 56.2574 117.914 55.9808 117.87C55.7936 117.87 55.589 117.821 55.4364 117.989L54.2869 117.977Z" fill="#FF3535"/>
<path d="M55.8887 117.778C56.2171 117.778 56.5714 117.628 56.8221 117.977H55.8887C55.8166 117.94 55.7907 117.896 55.8109 117.85C55.831 117.804 55.8599 117.778 55.8887 117.778Z" fill="#505050"/>
<path d="M117.781 61.8837C117.755 61.6244 117.683 61.3536 117.977 61.1865V61.8751C117.916 61.973 117.85 61.9788 117.781 61.8837Z" fill="#454545"/>
<path d="M61.1866 117.977C61.3537 117.689 61.6245 117.755 61.8837 117.781C61.9529 117.827 61.9731 117.873 61.9471 117.917C61.9212 117.96 61.8982 117.977 61.8751 117.977H61.1866Z" fill="#454545"/>
<path d="M117.781 61.8838H117.977V62.3447C117.919 62.4398 117.856 62.4484 117.787 62.3447C117.784 62.1949 117.784 62.0394 117.781 61.8838Z" fill="#585858"/>
<path d="M117.787 62.3475H117.977V62.8027C117.697 62.7393 117.758 62.5377 117.787 62.3475Z" fill="#7A7A7A"/>
<path d="M55.8887 117.778C55.8944 117.844 55.8944 117.911 55.8887 117.977H55.4277C55.494 117.706 55.6956 117.758 55.8887 117.778Z" fill="#7A7A7A"/>
<path d="M61.8751 117.977C61.8751 117.914 61.8751 117.847 61.8751 117.781H62.3389C62.4052 117.83 62.4225 117.873 62.3994 117.916C62.3764 117.96 62.3505 117.974 62.3274 117.974L61.8751 117.977Z" fill="#585858"/>
<path d="M62.336 117.977C62.3318 117.913 62.3318 117.848 62.336 117.784C62.5262 117.755 62.7278 117.698 62.7826 117.977H62.336Z" fill="#7A7A7A"/>
<path d="M55.2635 69.5872C55.4982 69.2095 55.7601 68.8494 56.0471 68.5097C73.2689 51.3206 90.4916 34.1315 107.715 16.9424C109 15.6575 110.38 14.776 112.29 15.1418C113.027 15.2768 113.718 15.5979 114.296 16.0746C114.874 16.5514 115.32 17.168 115.593 17.8659C115.866 18.5638 115.956 19.3199 115.854 20.0623C115.752 20.8047 115.463 21.5088 115.013 22.1077C114.702 22.4974 114.364 22.8642 114.001 23.2054C95.5831 41.5833 77.1638 59.9584 58.7436 78.3306C56.0846 80.981 53.6474 80.9234 51.0834 78.1404C43.9446 70.3948 36.8078 62.6453 29.6728 54.8919C27.8205 52.8753 27.7542 50.2825 29.4626 48.4993C31.2775 46.6066 34.1238 46.693 36.0712 48.7643C38.664 51.5271 41.2164 54.3388 43.7862 57.1188L55.2635 69.5872Z" fill="#FF3535"/>
</svg>
