<svg width="26" height="26" viewBox="0 0 26 26" fill="none" xmlns="http://www.w3.org/2000/svg">
<path d="M0.519531 5.5H2.98047V23.0195H20.5V25.4805H2.98047C2.31641 25.4805 1.73047 25.2461 1.22266 24.7773C0.753906 24.2695 0.519531 23.6836 0.519531 23.0195V5.5ZM11.7695 13L8.01953 17.9805H23.0195L17.9805 11.7695L14.2891 16.3984L11.7695 13ZM25.4805 17.9805C25.4805 18.6445 25.2266 19.2305 24.7188 19.7383C24.25 20.2461 23.6836 20.5 23.0195 20.5H8.01953C7.35547 20.5 6.76953 20.2461 6.26172 19.7383C5.75391 19.2305 5.5 18.6445 5.5 17.9805V2.98047C5.5 2.31641 5.75391 1.75 6.26172 1.28125C6.76953 0.773437 7.35547 0.519531 8.01953 0.519531H23.0195C23.6836 0.519531 24.25 0.773437 24.7188 1.28125C25.2266 1.75 25.4805 2.31641 25.4805 2.98047V17.9805Z" fill="white"/>
</svg>
