<svg width="60" height="54" viewBox="0 0 60 54" fill="none" xmlns="http://www.w3.org/2000/svg">
<path d="M19.6094 40.3906C22.526 43.2161 25.9896 44.6289 30 44.6289C34.0104 44.6289 37.4284 43.2161 40.2539 40.3906C43.1706 37.474 44.6289 34.0104 44.6289 30C44.6289 25.9896 43.1706 22.5716 40.2539 19.7461C37.4284 16.8294 34.0104 15.3711 30 15.3711C25.9896 15.3711 22.526 16.8294 19.6094 19.7461C16.7839 22.5716 15.3711 25.9896 15.3711 30C15.3711 34.0104 16.7839 37.474 19.6094 40.3906ZM21.25 0.878906H38.75L44.082 6.62109H53.3789C54.9284 6.62109 56.25 7.21354 57.3438 8.39844C58.5286 9.58333 59.1211 10.9505 59.1211 12.5V47.5C59.1211 49.0495 58.5286 50.4167 57.3438 51.6016C56.25 52.7865 54.9284 53.3789 53.3789 53.3789H6.62109C5.07161 53.3789 3.70443 52.7865 2.51953 51.6016C1.42578 50.4167 0.878906 49.0495 0.878906 47.5V12.5C0.878906 10.9505 1.42578 9.58333 2.51953 8.39844C3.70443 7.21354 5.07161 6.62109 6.62109 6.62109H15.918L21.25 0.878906ZM23.4375 36.5625C21.6146 34.7396 20.7031 32.5521 20.7031 30C20.7031 27.4479 21.6146 25.2604 23.4375 23.4375C25.2604 21.6146 27.4479 20.7031 30 20.7031C32.5521 20.7031 34.7396 21.6146 36.5625 23.4375C38.3854 25.2604 39.2969 27.4479 39.2969 30C39.2969 32.5521 38.3854 34.7396 36.5625 36.5625C34.7396 38.3854 32.5521 39.2969 30 39.2969C27.4479 39.2969 25.2604 38.3854 23.4375 36.5625Z" fill="white"/>
</svg>
