<svg width="26" height="24" viewBox="0 0 26 24" fill="none" xmlns="http://www.w3.org/2000/svg">
<path d="M8.54688 17.4531C9.79688 18.6641 11.2812 19.2695 13 19.2695C14.7188 19.2695 16.1836 18.6641 17.3945 17.4531C18.6445 16.2031 19.2695 14.7188 19.2695 13C19.2695 11.2813 18.6445 9.81641 17.3945 8.60547C16.1836 7.35547 14.7188 6.73047 13 6.73047C11.2812 6.73047 9.79688 7.35547 8.54688 8.60547C7.33594 9.81641 6.73047 11.2813 6.73047 13C6.73047 14.7188 7.33594 16.2031 8.54688 17.4531ZM9.25 0.519531H16.75L19.0352 2.98047H23.0195C23.6836 2.98047 24.25 3.23437 24.7188 3.74219C25.2266 4.25 25.4805 4.83594 25.4805 5.5V20.5C25.4805 21.1641 25.2266 21.75 24.7188 22.2578C24.25 22.7656 23.6836 23.0195 23.0195 23.0195H2.98047C2.31641 23.0195 1.73047 22.7656 1.22266 22.2578C0.753906 21.75 0.519531 21.1641 0.519531 20.5V5.5C0.519531 4.83594 0.753906 4.25 1.22266 3.74219C1.73047 3.23437 2.31641 2.98047 2.98047 2.98047H6.96484L9.25 0.519531ZM10.1875 15.8125C9.40625 15.0312 9.01562 14.0938 9.01562 13C9.01562 11.9062 9.40625 10.9687 10.1875 10.1875C10.9688 9.40625 11.9062 9.01562 13 9.01562C14.0938 9.01562 15.0312 9.40625 15.8125 10.1875C16.5938 10.9687 16.9844 11.9062 16.9844 13C16.9844 14.0938 16.5938 15.0312 15.8125 15.8125C15.0312 16.5938 14.0938 16.9844 13 16.9844C11.9062 16.9844 10.9688 16.5938 10.1875 15.8125Z" fill="white"/>
</svg>
